<svg xmlns="http://www.w3.org/2000/svg" xmlns:xlink="http://www.w3.org/1999/xlink" style="isolation:isolate" viewBox="626.418 153 200 200" width="200" height="200" id="ry7g8fujoKz">
    <style type="text/css">
        @-webkit-keyframes ryEeIzujsFz_Bk2M_ojKG_Animation{0%{-webkit-transform: rotate(0deg);transform: rotate(0deg);}100%{-webkit-transform: rotate(360deg);transform: rotate(360deg);}}@keyframes ryEeIzujsFz_Bk2M_ojKG_Animation{0%{-webkit-transform: rotate(0deg);transform: rotate(0deg);}100%{-webkit-transform: rotate(360deg);transform: rotate(360deg);}}#ry7g8fujoKz *{-webkit-animation-duration: 2s;animation-duration: 2s;-webkit-animation-iteration-count: infinite;animation-iteration-count: infinite;-webkit-animation-timing-function: cubic-bezier(0, 0, 1, 1);animation-timing-function: cubic-bezier(0, 0, 1, 1);transform-box: fill-box;-webkit-transform-origin: 50% 50%;transform-origin: 50% 50%;}#SJreLzujsYM{fill: rgb(194,205,231);}#B1UeUMuostM{fill: rgb(172,183,208);}#SywgIzdojKz{fill: rgb(249,221,143);}#S1ueIMuioYM{fill: rgb(141,108,159);}#r1txUz_sjtz{fill: rgb(141,108,159);}#Hkqg8GuoitM{fill: rgb(141,108,159);}#BJolLz_ojKM{fill: rgb(141,108,159);}#ryEeIzujsFz_Bk2M_ojKG{-webkit-animation-name: ryEeIzujsFz_Bk2M_ojKG_Animation;animation-name: ryEeIzujsFz_Bk2M_ojKG_Animation;-webkit-transform-origin: undefined;transform-origin: undefined;-webkit-animation-timing-function: cubic-bezier(0.42, 0, 0.58, 1);animation-timing-function: cubic-bezier(0.42, 0, 0.58, 1);}
    </style>
    <g id="ryEeIzujsFz_Bk2M_ojKG" data-animator-group="true" data-animator-type="1">
        <g id="ryEeIzujsFz">
            <path d=" M 822.069 261.051 L 822.069 244.947 C 822.056 241.93 820.003 239.304 817.078 238.565 L 794.339 232.873 C 793.258 232.594 792.389 231.79 792.026 230.734 C 791.051 227.892 789.889 225.118 788.548 222.43 C 788.005 221.442 788.005 220.244 788.548 219.256 L 800.635 199.126 C 802.184 196.537 801.771 193.225 799.635 191.095 L 788.374 179.695 C 786.235 177.558 782.918 177.146 780.322 178.695 L 760.165 190.782 C 759.177 191.325 757.98 191.325 756.991 190.782 C 754.303 189.441 751.529 188.279 748.687 187.304 C 747.618 186.949 746.801 186.08 746.513 184.991 L 740.852 162.348 C 740.116 159.419 737.489 157.362 734.47 157.348 L 718.366 157.348 C 715.344 157.365 712.713 159.422 711.983 162.339 L 706.292 185.078 C 706.004 186.167 705.187 187.036 704.118 187.391 C 701.274 188.362 698.5 189.524 695.814 190.869 C 694.825 191.412 693.628 191.412 692.64 190.869 L 672.509 178.695 C 669.914 177.149 666.6 177.56 664.462 179.695 L 653.114 191.043 C 650.977 193.182 650.565 196.499 652.114 199.095 L 664.205 219.217 C 664.748 220.205 664.748 221.402 664.205 222.391 C 662.858 225.078 661.696 227.854 660.727 230.699 C 660.368 231.755 659.496 232.554 658.414 232.821 L 635.675 238.53 C 632.768 239.3 630.749 241.939 630.766 244.947 L 630.766 261.051 C 630.784 264.073 632.84 266.703 635.758 267.434 L 658.496 273.125 C 659.583 273.412 660.453 274.212 660.81 275.264 C 661.779 278.099 662.949 280.873 664.288 283.569 C 664.836 284.556 664.836 285.742 664.288 286.742 L 652.114 306.903 C 650.565 309.5 650.977 312.817 653.114 314.955 L 664.514 326.351 C 666.636 328.473 669.949 328.881 672.544 327.351 L 692.675 315.264 C 693.663 314.721 694.86 314.721 695.848 315.264 C 698.544 316.603 701.318 317.76 704.153 318.742 C 705.203 319.102 706.005 319.961 706.292 321.034 L 711.983 343.772 C 712.766 346.664 715.396 348.651 718.366 348.651 L 734.47 348.651 C 737.487 348.638 740.113 346.584 740.852 343.659 L 746.544 320.92 C 746.831 319.834 747.631 318.964 748.683 318.607 C 751.518 317.638 754.291 316.468 756.987 315.129 C 757.975 314.586 759.173 314.586 760.161 315.129 L 780.291 327.216 C 782.88 328.767 786.192 328.354 788.322 326.216 L 799.717 314.821 C 801.861 312.681 802.265 309.386 800.717 306.786 L 788.63 286.642 C 788.087 285.66 788.087 284.468 788.63 283.486 C 789.969 280.786 791.143 278.016 792.109 275.182 C 792.465 274.12 793.336 273.313 794.422 273.038 L 817.161 267.351 C 820.027 266.588 822.034 264.009 822.069 261.043 L 822.069 261.051 Z " id="SJreLzujsYM"/>
            <path d=" M 774.243 252.999 C 774.243 279.408 752.826 300.825 726.418 300.825 C 700.009 300.825 678.592 279.408 678.592 252.999 C 678.592 226.591 700.009 205.173 726.418 205.173 C 752.826 205.173 774.243 226.591 774.243 252.999 Z " id="B1UeUMuostM"/>
            <path d=" M 752.505 252.999 C 752.505 267.403 740.818 279.086 726.418 279.086 C 712.013 279.086 700.331 267.399 700.331 252.999 C 700.331 238.595 712.018 226.912 726.418 226.912 C 740.822 226.912 752.505 238.599 752.505 252.999 Z " id="SywgIzdojKz"/>
            <path d=" M 764.513 226.912 C 766.216 226.903 767.757 225.902 768.459 224.35 C 769.16 222.798 768.892 220.979 767.774 219.695 C 765.515 217.111 763.025 214.739 760.335 212.608 C 759.115 211.644 757.473 211.403 756.027 211.978 C 754.582 212.552 753.553 213.854 753.327 215.393 C 753.102 216.932 753.715 218.474 754.935 219.439 C 757.213 221.294 759.31 223.359 761.2 225.608 C 762.07 226.491 763.274 226.969 764.513 226.917 L 764.513 226.912 Z  M 709.027 212.256 C 709.505 212.256 709.961 212.186 710.418 212.039 C 720.17 208.795 730.709 208.795 740.461 212.039 C 742.739 212.8 745.2 211.56 745.965 209.282 C 746.708 206.999 745.472 204.545 743.196 203.782 C 731.649 199.961 719.178 199.961 707.631 203.782 C 705.594 204.452 704.349 206.506 704.696 208.621 C 705.053 210.726 706.887 212.273 709.027 212.256 Z  M 691.94 279.956 L 686.335 285.556 C 685.209 286.65 684.76 288.268 685.163 289.787 C 685.565 291.305 686.755 292.489 688.276 292.883 C 689.797 293.276 691.412 292.819 692.501 291.686 L 698.109 286.082 C 699.587 284.357 699.487 281.785 697.881 280.179 C 696.275 278.573 693.704 278.474 691.979 279.951 L 691.94 279.956 Z  M 689.718 267.573 C 689.27 266.511 688.419 265.671 687.351 265.238 C 686.284 264.804 685.088 264.812 684.027 265.26 L 676.757 268.351 C 674.63 269.339 673.67 271.835 674.586 273.993 C 675.502 276.152 677.965 277.195 680.153 276.351 L 687.288 273.264 C 688.375 272.834 689.244 271.986 689.701 270.916 C 690.157 269.848 690.163 268.641 689.718 267.569 L 689.718 267.573 Z  M 674.244 257.347 L 682.157 257.347 C 684.553 257.347 686.505 255.391 686.505 252.999 C 686.505 250.608 684.553 248.651 682.157 248.651 L 674.244 248.651 C 671.853 248.651 669.896 250.608 669.896 252.999 C 669.896 255.391 671.853 257.347 674.244 257.347 Z  M 676.201 237.869 L 683.583 240.704 C 685.834 241.564 688.357 240.44 689.222 238.191 C 689.637 237.114 689.607 235.917 689.139 234.863 C 688.671 233.808 687.803 232.983 686.727 232.569 L 679.335 229.73 C 677.084 228.872 674.564 229.998 673.701 232.247 C 673.286 233.324 673.316 234.521 673.784 235.575 C 674.252 236.63 675.12 237.455 676.196 237.869 L 676.201 237.869 Z " id="S1ueIMuioYM"/>
            <path d=" M 778.065 331.26 C 782.468 333.889 788.107 333.112 791.635 329.39 L 802.808 318.216 C 806.36 314.675 807.041 309.169 804.461 304.868 L 792.669 285.216 C 793.909 282.669 794.996 280.056 795.93 277.39 L 818.113 271.816 C 823.053 270.604 826.499 266.137 826.417 261.051 L 826.417 244.947 C 826.417 239.921 822.982 235.556 818.113 234.352 L 795.982 228.782 C 795.048 226.111 793.959 223.497 792.722 220.952 L 804.504 201.352 C 807.184 196.989 806.48 191.351 802.808 187.782 L 791.635 176.608 C 788.115 172.871 782.465 172.092 778.065 174.739 L 758.413 186.748 C 755.887 185.492 753.29 184.386 750.635 183.435 L 745.113 161.252 C 743.89 156.38 739.498 152.973 734.474 153 L 718.37 153 C 713.344 153 708.979 156.435 707.774 161.304 L 702.201 183.435 C 699.531 184.369 696.918 185.456 694.37 186.695 L 674.766 174.739 C 670.367 172.095 664.72 172.873 661.201 176.608 L 650.027 187.782 C 646.305 191.31 645.528 196.949 648.157 201.352 L 659.94 221.004 C 658.7 223.546 657.611 226.159 656.679 228.83 L 634.505 234.386 C 629.728 235.67 626.41 240.005 626.418 244.951 L 626.418 261.051 C 626.418 266.077 629.853 270.443 634.723 271.647 L 656.853 277.216 C 657.788 279.886 658.875 282.499 660.114 285.047 L 648.157 304.651 C 645.513 309.05 646.292 314.697 650.027 318.216 L 661.201 329.39 C 664.749 332.955 670.288 333.651 674.583 331.042 L 694.253 319.251 C 696.783 320.49 699.396 321.577 702.061 322.512 L 707.635 344.694 C 708.847 349.62 713.294 353.061 718.366 352.999 L 734.47 352.999 C 739.496 352.999 743.861 349.564 745.065 344.694 L 750.635 322.564 C 753.306 321.629 755.92 320.541 758.465 319.303 L 778.065 331.26 Z  M 747.287 314.477 C 744.827 315.294 742.957 317.314 742.331 319.829 L 736.635 342.568 C 736.376 343.557 735.484 344.248 734.461 344.251 L 718.361 344.251 C 717.34 344.249 716.448 343.56 716.187 342.572 L 710.5 319.834 C 709.877 317.305 708.009 315.268 705.544 314.429 C 702.881 313.516 700.281 312.426 697.761 311.168 C 695.426 309.994 692.651 310.097 690.409 311.442 L 670.279 323.516 C 669.399 324.043 668.273 323.903 667.549 323.177 L 656.157 311.781 C 655.427 311.056 655.287 309.924 655.818 309.042 L 667.892 288.921 C 669.234 286.676 669.338 283.902 668.166 281.564 C 666.911 279.045 665.822 276.447 664.905 273.786 C 664.079 271.333 662.065 269.467 659.557 268.83 L 636.814 263.121 C 635.814 262.874 635.112 261.977 635.114 260.947 L 635.114 244.86 C 635.114 243.847 635.81 242.947 636.81 242.686 L 659.553 236.999 C 662.061 236.362 664.075 234.495 664.901 232.043 C 665.819 229.381 666.908 226.782 668.162 224.26 C 669.331 221.925 669.23 219.155 667.892 216.913 L 655.818 196.782 C 655.289 195.901 655.429 194.773 656.157 194.047 L 667.549 182.656 C 668.266 181.912 669.402 181.763 670.288 182.295 L 690.414 194.391 C 692.655 195.743 695.437 195.838 697.766 194.643 C 700.285 193.385 702.885 192.296 705.548 191.382 C 707.995 190.557 709.86 188.552 710.505 186.052 L 716.192 163.313 C 716.441 162.314 717.336 161.612 718.366 161.609 L 734.47 161.609 C 735.487 161.609 736.387 162.304 736.644 163.309 L 742.331 186.048 C 742.927 188.606 744.8 190.675 747.287 191.521 C 749.951 192.435 752.551 193.524 755.07 194.782 C 757.396 195.974 760.183 195.869 762.422 194.53 L 782.552 182.439 C 783.438 181.926 784.558 182.072 785.283 182.795 L 796.678 194.174 C 797.407 194.906 797.546 196.039 797.017 196.926 L 784.943 217.047 C 783.618 219.278 783.514 222.028 784.669 224.352 C 785.93 226.865 787.017 229.465 787.93 232.134 C 788.765 234.595 790.787 236.46 793.278 237.091 L 816.021 242.778 C 817.021 243.034 817.739 243.934 817.721 244.951 L 817.721 261.056 C 817.721 262.073 817.026 262.973 816.026 263.23 L 793.282 268.916 C 790.774 269.554 788.761 271.42 787.935 273.873 C 787.017 276.535 785.928 279.135 784.674 281.656 C 783.502 283.991 783.604 286.764 784.943 289.008 L 797.017 309.138 C 797.543 310.016 797.409 311.138 796.678 311.868 L 785.287 323.264 C 784.561 323.995 783.43 324.135 782.548 323.603 L 762.422 311.529 C 760.179 310.189 757.406 310.085 755.07 311.255 C 752.557 312.499 749.939 313.586 747.287 314.486 L 747.287 314.477 Z " id="r1txUz_sjtz"/>
            <path d=" M 726.418 222.565 C 709.605 222.565 695.983 236.186 695.983 252.999 C 695.983 269.812 709.605 283.434 726.418 283.434 C 743.231 283.434 756.852 269.812 756.852 252.999 C 756.852 236.186 743.231 222.565 726.418 222.565 Z  M 726.418 274.738 C 714.412 274.738 704.679 265.005 704.679 252.999 C 704.679 240.993 714.412 231.26 726.418 231.26 C 738.424 231.26 748.157 240.993 748.157 252.999 C 748.157 265.005 738.424 274.738 726.418 274.738 Z " id="Hkqg8GuoitM"/>
            <path d=" M 725.833 246.333 C 729.939 246.326 733.225 249.909 732.833 254 C 732.487 257.623 729.471 260.34 725.833 260.333 C 722.087 260.326 719.012 257.411 718.833 253.666 C 718.644 249.688 721.853 246.34 725.833 246.333 Z " id="BJolLz_ojKM"/>
        </g>
    </g>
</svg>